<?xml version="1.0" encoding="utf-8"?>
<!-- Generator: Adobe Illustrator 27.7.0, SVG Export Plug-In . SVG Version: 6.00 Build 0)  -->
<svg version="1.1" id="Layer_1" xmlns="http://www.w3.org/2000/svg" xmlns:xlink="http://www.w3.org/1999/xlink" x="0px" y="0px"
	 viewBox="0 0 612 490.26" style="enable-background:new 0 0 612 490.26;" xml:space="preserve">
<style type="text/css">
	.st0{fill:#FFFFFF;stroke:#000000;stroke-miterlimit:10;}
</style>
<path class="st0" d="M552.74,136.46H64.36c-25.93,0-46.94-21.02-46.94-46.94v0c0-25.93,21.02-46.94,46.94-46.94h488.38
	c25.93,0,46.94,21.02,46.94,46.94v0C599.68,115.44,578.66,136.46,552.74,136.46z"/>
<path class="st0" d="M552.74,290.7H64.36c-25.93,0-46.94-21.02-46.94-46.94v0c0-25.93,21.02-46.94,46.94-46.94h488.38
	c25.93,0,46.94,21.02,46.94,46.94v0C599.68,269.68,578.66,290.7,552.74,290.7z"/>
<path class="st0" d="M552.74,444.94H64.36c-25.93,0-46.94-21.02-46.94-46.94v0c0-25.93,21.02-46.94,46.94-46.94h488.38
	c25.93,0,46.94,21.02,46.94,46.94v0C599.68,423.92,578.66,444.94,552.74,444.94z"/>
</svg>
