<?xml version="1.0" encoding="utf-8"?>
<!-- Generator: Adobe Illustrator 27.7.0, SVG Export Plug-In . SVG Version: 6.00 Build 0)  -->
<svg version="1.1" id="Layer_1" xmlns="http://www.w3.org/2000/svg" xmlns:xlink="http://www.w3.org/1999/xlink" x="0px" y="0px"
	 viewBox="0 0 612 490.26" style="enable-background:new 0 0 612 490.26;" xml:space="preserve">
<style type="text/css">
	.st0{fill:#FFFFFF;}
</style>
<path class="st0" d="M515.51,97.25L170.18,442.59c-18.33,18.33-48.05,18.33-66.39,0l0,0c-18.33-18.33-18.33-48.05,0-66.39
	L449.13,30.86c18.33-18.33,48.05-18.33,66.39,0l0,0C533.85,49.2,533.85,78.92,515.51,97.25z"/>
<path class="st0" d="M441.82,449.89L96.49,104.55c-18.33-18.33-18.33-48.05,0-66.39l0,0c18.33-18.33,48.05-18.33,66.39,0
	L508.21,383.5c18.33,18.33,18.33,48.05,0,66.39l0,0C489.88,468.22,460.16,468.22,441.82,449.89z"/>
</svg>
